<?xml version="1.0" encoding="utf-8"?>
<!-- Generator: Adobe Illustrator 19.0.0, SVG Export Plug-In . SVG Version: 6.00 Build 0)  -->
<svg version="1.1" id="Layer_1" xmlns="http://www.w3.org/2000/svg" xmlns:xlink="http://www.w3.org/1999/xlink" x="0px" y="0px"
	 viewBox="0 0 69.4 26.4" style="enable-background:new 0 0 69.4 26.4;" xml:space="preserve">
<style type="text/css">
	.st0{fill:#D7EDEA;}
</style>
<path id="XMLID_2_" class="st0" d="M67.4,26.4c1.3-2,2-3.6,2-5.7c0-4.2-3.1-7.8-7.2-8.3C61.2,5.4,55.2,0,47.9,0
	c-5.3,0-9.8,2.8-12.4,7c-0.9-0.2-1.8-0.3-2.7-0.3c-3.3,0-6.3,1.3-8.6,3.4c-0.7-0.3-1.4-0.4-2.2-0.4c-2.6,0-4.8,1.7-5.5,4
	c-1.6-0.8-3.4-1.3-5.3-1.3C5.1,12.4,0,17.7,0,23.9c0,0.8,0.1,1.4,0.2,2.4H67.4z"/>
</svg>
