<?xml version="1.0" encoding="utf-8"?>
<!-- Generator: Adobe Illustrator 19.0.0, SVG Export Plug-In . SVG Version: 6.00 Build 0)  -->
<svg version="1.1" id="Layer_1" xmlns="http://www.w3.org/2000/svg" xmlns:xlink="http://www.w3.org/1999/xlink" x="0px" y="0px"
	 viewBox="0 0 70.6 28.8" style="enable-background:new 0 0 70.6 28.8;" xml:space="preserve">
<style type="text/css">
	.st0{fill:#D7EDEA;}
</style>
<path id="XMLID_3_" class="st0" d="M13.8,28.8C13.8,28.8,13.8,28.8,13.8,28.8c0,0,0.1,0,0.1,0h56.4c0.1-1,0.2-1.1,0.2-1.7
	c0-4.2-3.4-7.5-7.6-7.5c-1,0-2,0.2-2.8,0.6c-0.6-4.7-4.5-8.3-9.3-8.6C48,4.8,41.3,0,33.4,0c-7.4,0-13.7,4.2-16.8,10.4
	c-0.1,0-0.3,0-0.4,0c-5.2,0-9.5,4.3-9.5,9.5c0,0.7,0.1,1.4,0.2,2c-3.8,0-6.9,3-6.9,6.8c0,0.1,0,0.2,0,0.2H13.8z"/>
</svg>
