<?xml version="1.0" encoding="utf-8"?>
<!-- Generator: Adobe Illustrator 19.0.0, SVG Export Plug-In . SVG Version: 6.00 Build 0)  -->
<svg version="1.1" id="Layer_1" xmlns="http://www.w3.org/2000/svg" xmlns:xlink="http://www.w3.org/1999/xlink" x="0px" y="0px"
	 viewBox="0 0 69.1 27.9" style="enable-background:new 0 0 69.1 27.9;" xml:space="preserve">
<style type="text/css">
	.st0{fill:#D7EDEA;}
</style>
<path id="XMLID_69_" class="st0" d="M68.9,27.9c0.1,0,0.2-1.5,0.2-2.1c0-3.6-2.9-6.7-6.5-6.7c-2.1,0-3.9,0.8-5.1,2.4
	c-0.9-3.3-3.9-5.9-7.5-5.9c-0.8,0-1.6,0.1-2.4,0.3c-0.9-5.4-5.6-9.5-11.2-9.5c-1.8,0-3.5,0.4-4.9,1.1C28.4,3,23.2,0,17.3,0
	C7.7,0,0,8.2,0,17.7c0,3.6,1.1,7.2,3,10.2H68.9z"/>
</svg>
