<?xml version="1.0" encoding="utf-8"?>
<!-- Generator: Adobe Illustrator 19.0.0, SVG Export Plug-In . SVG Version: 6.00 Build 0)  -->
<svg version="1.1" id="Layer_1" xmlns="http://www.w3.org/2000/svg" xmlns:xlink="http://www.w3.org/1999/xlink" x="0px" y="0px"
	 viewBox="0 0 357.1 255" style="enable-background:new 0 0 357.1 255;" xml:space="preserve">
<style type="text/css">
	.st0{opacity:0.2;fill:#575556;}
	.st1{fill:#FFFFFF;}
	.st2{fill:#575556;}
	.st3{fill:#FFCB58;}
	.st4{fill:#F35D48;}
</style>
<ellipse id="XMLID_5_" class="st0" cx="198.4" cy="248.9" rx="83.5" ry="6.1"/>
<g>
	<path id="XMLID_4_" class="st1" d="M321.5,35.1c-1.1-16.2-15.1-28.5-31.3-27.5c-12.1,0.8-22.1,8.8-25.9,19.6
		c-11.5,28.4-11.1,14-70.3,19.4c-46.6,4.2-83.9,17.6-103.2,61.6c-10.5,1.3-23.2-91.7-80.6-97.7c-12.7,40,36.1,89.2,35.3,91.9
		C44.9,104.2,10.1,67,1.1,84.1c-8.7,16.5,37.5,39.7,37.2,41.6c-0.4,2.7-14.6,1.5-14.2,12.3c0.6,15.2,42.3,22.7,42.3,24.5
		c0,2.1,1.9,21.8,2.7,23.8c4.6,10.5,15.5,7.7,19.8,6.8c18.4,47.1,66.2,57.9,120.1,54.4c65.9-4.3,117.8-62.9,114.1-119.1
		c-0.8-11.6-4.2-64.2-5-77.5C320.6,46.1,321.8,40.7,321.5,35.1z"/>
	<circle id="XMLID_3_" class="st2" cx="283.7" cy="40.8" r="7"/>
	<path id="XMLID_2_" class="st3" d="M357.1,40l-51.4,16.1c-1.6,0.5-3.1-1.1-2.5-2.7l4.3-11.5c2.2-5.9,8.4-9.4,14.6-8.3L357.1,40z"/>
	<path id="XMLID_1_" class="st4" d="M269.3,16.3c0.3,0.2,0.7,0.4,1.2,0.6c4.8-5.1,11.3-8.6,18.8-9.3c0.2-1.3,0.3-2.4,0.3-2.9
		c0-2.6-2.1-4.7-4.7-4.7c-2.6,0-4.7,2.1-4.7,4.7c0,0.7,0.2,2.3,0.5,4c-0.6-1.6-1.1-3-1.4-3.6c-1.1-1.9-3.4-2.5-5.3-1.5
		c-1.9,1.1-2.5,3.4-1.5,5.3c0.3,0.6,1.1,1.7,2.1,3c-0.6-0.5-1.1-0.9-1.4-1.1c-1.5-1.1-3.6-0.7-4.7,0.8
		C267.4,13.2,267.8,15.3,269.3,16.3z"/>
</g>
</svg>
