<svg xmlns="http://www.w3.org/2000/svg" xmlns:xlink="http://www.w3.org/1999/xlink" version="1.1" id="Coop" x="0px" y="0px" viewBox="0 0 107.5 121.9" xml:space="preserve" enable-background="new 0 0 107.5 121.9">
  <style type="text/css">

	.st0{fill:#FB9D33;}
	.st1{fill:#C44625;}
	.st2{fill:#FED375;}
	.st3{fill:#731314;}
	.st4{fill:#751312;}
	.st5{fill:#751310;}
	.st6{fill:#FA9C33;}
	.st7{fill:#C34725;}

  </style>
  <polygon class="st0" points="78.1 4.6 13.4 22.7 13.4 103.9 78.1 103.9 "/>
  <polygon id="XMLID_4_" class="st1" points="99.1 11.7 78.1 4.6 78.1 102.3 99.1 102.3 "/>
  <path id="XMLID_19_" class="st2" d="M79.1 102.3H12v-5.1h26.6l0-26.4h1.4l0 26.4h39V102.3zM17.1 98.7c-0.5 0-0.9 0.4-0.9 0.9 0 0.5 0.4 0.9 0.9 0.9s0.9-0.4 0.9-0.9C18 99.1 17.6 98.7 17.1 98.7zM72.7 98.7c-0.5 0-0.9 0.4-0.9 0.9 0 0.5 0.4 0.9 0.9 0.9 0.5 0 0.9-0.4 0.9-0.9C73.6 99.1 73.2 98.7 72.7 98.7z"/>
  <polygon id="XMLID_12_" class="st0" points="79.1 97.2 100.5 97.5 100.5 102.3 79.1 102.3 "/>
  <polygon id="XMLID_16_" class="st1" points="13.4 61.3 78.1 61.3 78.1 59.4 70.1 59.4 70.1 31 57.5 31 57.5 59.4 35.3 59.4 35.3 31 22.6 31 22.6 59.4 13.4 59.4 "/>
  <polygon id="XMLID_20_" class="st0" points="104.2 117.7 55.1 117.7 35.8 121.9 38.9 117.7 10.1 117.7 9.2 116.4 15.5 116.4 15.5 103.9 20.9 103.9 20.9 116.4 69.4 116.4 69.4 103.9 74.8 103.9 74.8 116.4 105.2 116.4 "/>
  <path id="XMLID_1_" class="st1" d="M13.4 102.3h20.8l4.5-5.1h1.4l0-26.4h13.2v26.4l-3.8 5.1h49.6v1.6h-2.6l0 12.5h-5.4l0-12.5H75.9l0 13h-1.1v-7.1l-5.4-2.2 0-3.8H55.1l0 12.5h-5.4l0-12.5 -1.5 0 -12.5 16.5H18.2l2.7-3.1v-7.4l-5.4-2.2 0-3.8h-2.1V102.3zM22 103.9l0 12.1 10.7-12.1H22z"/>
  <polygon id="XMLID_18_" class="st3" points="78.1 103.9 91.1 103.9 91.1 107.7 96.4 109.8 96.4 116.4 97.6 116.4 97.6 103.9 99.1 103.9 99.1 102.3 79.1 102.3 78.1 102.3 "/>
  <rect x="20.9" y="103.9" class="st4" width="1.1" height="5.9"/>
  <rect x="74.8" y="103.9" class="st4" width="1.1" height="5.9"/>
  <polygon id="XMLID_21_" class="st0" points="23 114.9 24.2 113.6 40.9 113.6 39.9 114.9 "/>
  <polygon id="XMLID_22_" class="st0" points="26.8 110.6 28.1 109.2 44.2 109.2 43.2 110.6 "/>
  <polygon id="XMLID_23_" class="st0" points="31.2 105.6 32.4 104.2 48 104.2 46.9 105.6 "/>
  <polygon id="XMLID_24_" class="st0" points="36.1 100.1 37.3 98.7 52.1 98.7 51.1 100.1 "/>
  <polygon class="st5" points="46.9 105.6 31.2 105.6 31.1 105.7 46.8 105.7 "/>
  <polygon id="XMLID_25_" class="st6" points="53.3 97.2 59.2 102.3 50.5 102.3 53.3 98.5 "/>
  <polygon id="XMLID_15_" class="st3" points="78.1 61.3 99.1 62.9 99.1 61 94.3 60.6 94.3 34.5 91.7 33.8 91.7 60.4 86.2 59.9 86.2 32.4 83.5 31.7 83.5 59.7 79.1 59.4 78.1 59.4 "/>
  <polygon id="XMLID_27_" class="st3" points="35.8 121.9 18.2 121.9 18.2 120.4 35.8 120.4 39.8 115.1 22.8 115.1 23 114.9 39.9 114.9 43.1 110.7 26.7 110.7 26.8 110.6 43.2 110.6 46.8 105.7 31.1 105.7 31.2 105.6 46.9 105.6 51 100.2 35.9 100.2 36.1 100.1 51.1 100.1 53.3 97.2 53.3 98.5 50.5 102.3 59.2 102.3 59.2 103.9 56.3 103.9 56.3 116.4 55.1 116.4 55.1 109.8 49.8 107.7 49.8 103.9 49.3 103.9 "/>
  <polygon id="XMLID_11_" class="st0" points="79.1 54.3 86.2 55 86.2 32.4 87.5 32.5 87.5 55.1 94.3 55.7 94.3 34.5 95.7 34.6 95.7 55.8 100.5 56.3 100.5 61.1 79.1 59.4 "/>
  <path id="XMLID_14_" class="st2" d="M79.1 59.4H12v-5.1h8.8l0-23.3h1.8l0 23.3h33l0-23.3h1.8l0 23.3h21.6V59.4zM17.1 55.9c-0.5 0-0.9 0.4-0.9 0.9 0 0.5 0.4 0.9 0.9 0.9s0.9-0.4 0.9-0.9C18 56.3 17.6 55.9 17.1 55.9zM46.7 55.9c-0.5 0-0.9 0.4-0.9 0.9 0 0.5 0.4 0.9 0.9 0.9 0.5 0 0.9-0.4 0.9-0.9C47.6 56.3 47.2 55.9 46.7 55.9zM72.7 55.9c-0.5 0-0.9 0.4-0.9 0.9 0 0.5 0.4 0.9 0.9 0.9 0.5 0 0.9-0.4 0.9-0.9C73.6 56.3 73.2 55.9 72.7 55.9z"/>
  <polygon class="st1" points="78.1 4.5 13.4 22.7 13.4 23.8 78.1 11.7 "/>
  <polygon id="XMLID_29_" class="st3" points="99.1 11.7 107.5 9.2 87 2.1 78.1 4.5 78.1 11.7 99.1 19.3 "/>
  <polygon id="XMLID_5_" class="st3" points="13.4 22.7 0.1 26.4 13.4 26.4 "/>
  <polygon id="XMLID_3_" class="st7" points="86.8 0 107.5 7.2 107.5 9.2 87 2.1 "/>
  <polygon id="XMLID_2_" class="st2" points="0.1 26.4 87 2.1 86.8 0 0 24.5 "/>
</svg>
